<?xml version='1.0' encoding='ascii'?>
<svg xmlns="http://www.w3.org/2000/svg" height="540" version="1.1" width="960">
    <g id="RenderLayer_LineSet" inkscape:groupmode="lineset" inkscape:label="RenderLayer_LineSet" xmlns:inkscape="http://www.inkscape.org/namespaces/inkscape">
        <g id="strokes" inkscape:groupmode="layer" inkscape:label="strokes" xmlns:inkscape="http://www.inkscape.org/namespaces/inkscape">
            <path d=" M 353.797, 319.086 345.031, 314.273 336.266, 309.460 327.500, 304.648 318.734, 299.835 309.968, 295.023 301.203, 290.210 296.307, 287.522 286.478, 285.680 278.271, 284.141 278.271, 277.377 288.100, 275.534 296.307, 273.995 306.307, 273.995 316.307, 273.995 326.307, 273.995 336.307, 273.995 346.307, 273.995 356.307, 273.995 366.307, 273.995 371.833, 273.995 362.609, 270.133 353.797, 266.443 353.797, 256.443 353.797, 246.443 353.797, 236.443 353.797, 226.443 353.797, 216.443 353.797, 210.531 362.110, 204.972 370.422, 199.413 371.833, 198.469 371.833, 188.469 371.833, 184.942 362.436, 181.524 353.797, 178.382 353.797, 168.382 353.797, 158.382 353.797, 148.382 353.797, 138.382 353.797, 128.382 353.797, 125.897 363.195, 122.478 371.833, 119.336 375.547, 110.051 377.244, 105.809 387.244, 105.809 397.244, 105.809 407.244, 105.809 417.244, 105.809 427.244, 105.809 437.244, 105.809 447.244, 105.809 456.603, 105.809 460.317, 115.094 462.014, 119.336 470.792, 124.126 479.570, 128.915 480.050, 129.177 480.050, 139.177 480.050, 149.177 480.050, 159.177 480.050, 169.177 480.050, 175.101 471.272, 179.891 462.493, 184.681 462.014, 184.942 462.014, 194.942 462.014, 198.469 470.326, 204.028 478.639, 209.587 480.050, 210.531 480.050, 220.531 480.050, 230.531 480.050, 240.531 480.050, 250.531 480.050, 260.531 480.050, 266.443 470.826, 270.305 462.014, 273.995 472.014, 273.995 482.014, 273.995 492.014, 273.995 502.014, 273.995 512.014, 273.995 522.014, 273.995 532.014, 273.995 537.540, 273.995 547.369, 275.838 555.576, 277.377 555.576, 284.141 545.747, 285.984 537.540, 287.522 528.774, 292.335 520.008, 297.148 511.243, 301.960 502.477, 306.773 493.711, 311.585 484.945, 316.398 480.050, 319.086 480.050, 329.086 480.050, 339.086 480.050, 349.086 480.050, 359.086 480.050, 364.176 478.089, 373.982 477.344, 377.703 467.344, 377.703 464.719, 377.703 462.758, 367.897 462.014, 364.176 462.014, 374.176 462.014, 382.212 470.958, 386.684 475.541, 388.976 475.541, 398.976 475.541, 408.976 475.541, 418.976 475.541, 420.539 466.597, 425.011 462.014, 427.302 458.852, 436.789 457.505, 440.829 447.505, 440.829 437.505, 440.829 427.505, 440.829 417.505, 440.829 407.505, 440.829 397.505, 440.829 387.505, 440.829 377.505, 440.829 376.342, 440.829 373.180, 431.342 371.833, 427.302 362.889, 422.830 358.306, 420.539 358.306, 410.539 358.306, 400.539 358.306, 390.539 358.306, 388.976 367.251, 384.503 371.833, 382.212 371.833, 372.212 371.833, 364.176 369.872, 373.982 369.128, 377.703 359.128, 377.703 356.503, 377.703 354.541, 367.897 353.797, 364.176 353.797, 354.176 353.797, 344.176 353.797, 334.176 353.797, 324.176 353.797, 319.086 " fill="none" stroke="rgb(0, 0, 0)" stroke-linecap="butt" stroke-linejoin="round" stroke-opacity="1.0" stroke-width="3.0" />
            <path d=" M 513.211, 136.909 513.211, 146.909 513.211, 156.909 513.211, 166.909 513.211, 176.909 513.211, 178.598 514.952, 187.774 524.952, 187.774 528.879, 187.774 530.619, 178.598 530.619, 188.598 530.619, 196.006 521.443, 200.174 521.443, 210.174 521.443, 220.174 521.443, 230.174 521.443, 233.525 530.619, 237.694 540.619, 237.694 550.619, 237.694 560.619, 237.694 570.619, 237.694 580.619, 237.694 590.619, 237.694 600.619, 237.694 610.619, 237.694 620.619, 237.694 622.185, 237.694 631.361, 233.525 631.361, 223.525 631.361, 213.525 631.361, 203.525 631.361, 200.174 622.185, 196.006 622.185, 186.006 622.185, 178.598 623.578, 187.774 633.578, 187.774 638.200, 187.774 639.593, 178.598 639.593, 168.598 639.593, 158.598 639.593, 148.598 639.593, 138.598 639.593, 136.909 637.852, 127.733 627.852, 127.733 623.926, 127.733 622.185, 136.909 622.185, 126.909 622.185, 119.501 615.121, 112.423 613.028, 110.325 603.028, 110.325 593.028, 110.325 583.028, 110.325 573.028, 110.325 563.028, 110.325 553.028, 110.325 543.028, 110.325 539.776, 110.325 532.713, 117.404 530.619, 119.501 530.619, 129.501 530.619, 136.909 528.879, 127.733 518.879, 127.733 514.952, 127.733 513.211, 136.909 " fill="none" stroke="rgb(0, 0, 0)" stroke-linecap="butt" stroke-linejoin="round" stroke-opacity="1.0" stroke-width="3.0" />
            <path d=" M 456.603, 386.721 446.603, 386.721 436.603, 386.721 426.603, 386.721 416.603, 386.721 406.603, 386.721 396.603, 386.721 386.603, 386.721 377.244, 386.721 377.244, 396.721 377.244, 406.721 377.244, 416.721 377.244, 422.793 387.244, 422.793 397.244, 422.793 407.244, 422.793 417.244, 422.793 427.244, 422.793 437.244, 422.793 447.244, 422.793 456.603, 422.793 456.603, 412.793 456.603, 402.793 456.603, 392.793 456.603, 386.721 " fill="none" stroke="rgb(0, 0, 0)" stroke-linecap="butt" stroke-linejoin="round" stroke-opacity="1.0" stroke-width="3.0" />
            <path d=" M 455.049, 177.304 455.049, 167.304 455.049, 157.304 455.049, 147.304 455.049, 137.304 455.049, 126.974 445.049, 126.974 435.049, 126.974 425.049, 126.974 415.049, 126.974 405.049, 126.974 395.049, 126.974 385.049, 126.974 378.798, 126.974 378.798, 136.974 378.798, 146.974 378.798, 156.974 378.798, 166.974 378.798, 177.304 388.798, 177.304 398.798, 177.304 408.798, 177.304 418.798, 177.304 428.798, 177.304 438.798, 177.304 448.798, 177.304 455.049, 177.304 " fill="none" stroke="rgb(0, 0, 0)" stroke-linecap="butt" stroke-linejoin="round" stroke-opacity="1.0" stroke-width="3.0" />
            <path d=" M 446.505, 511.167 436.505, 511.167 426.505, 511.167 416.505, 511.167 406.505, 511.167 396.505, 511.167 386.505, 511.167 376.505, 511.167 366.505, 511.167 356.365, 511.167 351.803, 520.066 347.241, 528.965 346.787, 529.850 346.787, 539.850 346.787, 544.419 " fill="none" stroke="rgb(0, 0, 0)" stroke-linecap="butt" stroke-linejoin="round" stroke-opacity="1.0" stroke-width="3.0" />
            <path d=" M 347.273, 543.932 347.273, 533.932 347.273, 529.850 346.787, 529.850 356.787, 529.850 357.096, 529.850 357.413, 529.850 367.413, 529.850 377.413, 529.850 387.413, 529.850 397.413, 529.850 407.413, 529.850 417.413, 529.850 427.413, 529.850 437.413, 529.850 443.325, 529.850 443.425, 529.850 " fill="none" stroke="rgb(0, 0, 0)" stroke-linecap="butt" stroke-linejoin="round" stroke-opacity="1.0" stroke-width="3.0" />
            <path d=" M 443.910, 529.850 445.286, 519.945 446.237, 513.101 446.505, 511.167 446.505, 521.167 446.505, 531.167 446.505, 541.167 446.505, 551.167 446.505, 561.167 446.505, 571.167 446.505, 581.167 446.505, 591.167 446.505, 601.308 " fill="none" stroke="rgb(0, 0, 0)" stroke-linecap="butt" stroke-linejoin="round" stroke-opacity="1.0" stroke-width="3.0" />
            <path d=" M 443.910, 529.850 443.910, 539.850 443.910, 543.932 " fill="none" stroke="rgb(0, 0, 0)" stroke-linecap="butt" stroke-linejoin="round" stroke-opacity="1.0" stroke-width="3.0" />
            <path d=" M 403.478, 540.849 403.478, 533.419 403.513, 533.419 413.513, 533.419 416.357, 533.419 416.357, 540.724 " fill="none" stroke="rgb(0, 0, 0)" stroke-linecap="butt" stroke-linejoin="round" stroke-opacity="1.0" stroke-width="3.0" />
            <path d=" M 443.927, 544.004 443.924, 534.004 443.922, 530.108 445.273, 520.200 446.237, 513.137 446.505, 511.167 " fill="none" stroke="rgb(0, 0, 0)" stroke-linecap="butt" stroke-linejoin="round" stroke-opacity="1.0" stroke-width="3.0" />
            <path d=" M 443.425, 529.850 443.621, 529.850 443.910, 529.850 443.621, 529.850 443.425, 529.850 " fill="none" stroke="rgb(0, 0, 0)" stroke-linecap="butt" stroke-linejoin="round" stroke-opacity="1.0" stroke-width="3.0" />
            <path d=" M 403.513, 540.724 403.513, 533.419 " fill="none" stroke="rgb(0, 0, 0)" stroke-linecap="butt" stroke-linejoin="round" stroke-opacity="1.0" stroke-width="3.0" />
            <path d=" M 443.425, 529.850 443.425, 530.108 443.425, 540.108 443.425, 543.932 " fill="none" stroke="rgb(0, 0, 0)" stroke-linecap="butt" stroke-linejoin="round" stroke-opacity="1.0" stroke-width="3.0" />
        </g>
    </g>
</svg>
